<?xml version="1.0" standalone="no"?>
<!DOCTYPE svg PUBLIC "-//W3C//DTD SVG 20010904//EN"
 "http://www.w3.org/TR/2001/REC-SVG-20010904/DTD/svg10.dtd">
<svg version="1.0" xmlns="http://www.w3.org/2000/svg"
 width="260.000000pt" height="260.000000pt" viewBox="0 0 260.000000 260.000000"
 preserveAspectRatio="xMidYMid meet">
<metadata>
Created by potrace 1.11, written by Peter Selinger 2001-2013
</metadata>
<g transform="translate(0.000000,260.000000) scale(0.100000,-0.100000)"
fill="#000000" stroke="none">
<path d="M84 2586 c-17 -8 -42 -29 -55 -47 l-24 -34 0 -1207 c0 -1197 0 -1207
20 -1234 11 -15 36 -35 55 -45 33 -18 85 -19 1218 -19 1299 0 1227 -3 1273 61
l24 34 0 1207 c0 1197 0 1207 -20 1234 -11 15 -36 35 -55 45 -33 18 -85 19
-1220 19 -973 -1 -1191 -3 -1216 -14z m681 -240 c18 -8 36 -12 39 -9 3 4 25
-14 49 -39 29 -31 48 -64 61 -104 10 -33 25 -70 33 -83 24 -38 36 -292 18
-405 -26 -171 -28 -209 -11 -241 29 -55 18 -108 -19 -99 -21 5 -25 1 -34 -34
-6 -22 -9 -46 -6 -54 7 -17 125 -41 141 -27 7 6 16 4 24 -6 11 -13 10 -19 -4
-33 -12 -13 -34 -17 -84 -17 -37 0 -73 -4 -79 -8 -26 -17 -63 -96 -94 -202
-17 -60 -39 -126 -49 -145 -9 -19 -27 -66 -40 -103 -12 -37 -33 -81 -46 -96
-13 -16 -24 -36 -24 -44 0 -9 -4 -18 -9 -21 -4 -3 -11 -19 -14 -35 -10 -49
-68 -130 -97 -133 -16 -2 -27 -11 -31 -28 -4 -14 -7 -21 -8 -17 -1 4 -11 -4
-24 -18 -15 -18 -45 -33 -91 -45 -38 -11 -79 -29 -91 -40 -36 -34 -83 -21
-126 33 l-22 29 17 106 c10 59 26 127 37 151 10 24 19 53 19 65 0 11 9 35 20
51 11 17 20 36 20 44 0 31 99 171 191 271 110 120 217 200 302 225 56 16 57
17 57 54 0 22 6 44 15 51 8 7 15 29 15 49 0 43 -15 52 -135 77 -51 11 -89 25
-105 40 -14 12 -44 30 -68 40 -53 20 -138 120 -153 179 -6 22 -16 52 -24 67
-7 14 -12 39 -10 55 11 105 21 144 46 193 15 30 30 66 33 80 8 37 156 183 218
214 59 29 94 32 143 12z m524 -82 c11 -14 29 -54 41 -89 12 -36 25 -67 30 -70
4 -2 5 -25 3 -49 -4 -31 2 -67 20 -122 22 -69 25 -96 24 -207 0 -112 2 -131
19 -154 11 -15 24 -28 30 -29 9 -3 85 142 85 162 -1 6 9 19 20 30 12 10 45 51
74 89 29 39 64 81 79 94 14 14 26 32 26 40 0 9 16 29 35 44 19 15 35 36 35 47
0 10 9 22 21 25 11 4 48 32 82 62 63 57 110 83 147 83 11 0 30 11 42 25 18 21
27 24 57 19 20 -4 43 -12 51 -19 8 -7 39 -13 68 -13 66 0 150 -39 192 -90 16
-20 30 -39 30 -43 0 -8 -80 -4 -105 6 -11 4 -27 14 -36 22 -9 8 -20 13 -25 11
-5 -1 -22 5 -39 14 -33 17 -113 21 -132 6 -7 -5 -17 -7 -23 -3 -26 16 -90 -29
-155 -107 -66 -78 -115 -118 -145 -118 -9 0 -21 -15 -28 -32 -7 -18 -37 -67
-68 -108 -31 -41 -66 -94 -77 -117 -12 -24 -26 -43 -32 -43 -26 0 -53 -49 -70
-123 -12 -59 -22 -81 -40 -93 -18 -12 -25 -28 -30 -74 -6 -54 -9 -59 -33 -62
-25 -3 -28 -8 -34 -58 -10 -74 -73 -263 -92 -275 -24 -15 -68 6 -79 39 -7 22
-5 43 9 85 10 31 19 85 20 121 0 36 4 94 7 130 3 36 2 115 -4 175 -5 61 -11
166 -13 235 -3 69 -10 148 -16 175 -6 28 -15 75 -19 106 -8 66 -20 84 -61 93
-17 3 -33 13 -37 22 -17 45 58 164 105 164 11 0 30 -11 41 -26z"/>
<path d="M755 2244 c-5 -1 -40 -5 -77 -9 -63 -6 -67 -8 -79 -38 -7 -18 -28
-49 -46 -70 -26 -29 -33 -46 -33 -77 0 -28 -4 -40 -15 -40 -8 0 -19 -9 -25
-20 -6 -11 -16 -20 -23 -20 -13 0 -37 -53 -37 -82 0 -9 7 -21 15 -28 12 -10
15 -28 13 -64 -2 -31 2 -57 10 -66 7 -8 24 -29 38 -47 32 -40 106 -82 209
-118 44 -15 87 -31 96 -36 21 -11 53 33 46 62 -3 10 1 23 9 30 10 8 14 33 13
83 -1 39 2 99 6 134 8 67 -14 214 -42 282 -23 57 -67 127 -78 124z"/>
<path d="M685 1127 c-10 -8 -15 -19 -11 -25 5 -8 -2 -12 -19 -12 -14 0 -36
-10 -48 -23 -12 -13 -30 -26 -39 -30 -9 -3 -25 -19 -34 -34 -10 -15 -28 -39
-41 -53 -92 -98 -147 -195 -120 -212 9 -6 4 -15 -18 -33 -16 -14 -29 -31 -27
-37 2 -7 -2 -22 -8 -34 -9 -16 -9 -27 0 -44 10 -19 10 -25 -2 -34 -14 -11 -45
-153 -35 -163 11 -11 79 20 126 58 50 39 61 54 102 142 12 26 34 58 50 71 17
15 30 38 35 62 3 22 10 44 14 49 3 6 12 30 19 55 7 25 19 52 26 60 7 8 15 32
18 54 3 21 14 47 23 57 9 10 14 25 11 33 -3 8 1 20 9 26 18 16 19 80 1 80 -7
0 -21 -6 -32 -13z"/>
</g>
</svg>
