<?xml version="1.0" encoding="UTF-8" standalone="no"?>
<svg
   xmlns:dc="http://purl.org/dc/elements/1.1/"
   xmlns:cc="http://creativecommons.org/ns#"
   xmlns:rdf="http://www.w3.org/1999/02/22-rdf-syntax-ns#"
   xmlns:svg="http://www.w3.org/2000/svg"
   xmlns="http://www.w3.org/2000/svg"
   xmlns:sodipodi="http://sodipodi.sourceforge.net/DTD/sodipodi-0.dtd"
   xmlns:inkscape="http://www.inkscape.org/namespaces/inkscape"
   viewBox="0 0 903.7301 251.21739"
   height="251.217"
   width="903.73"
   id="svg2"
   version="1.1"
   inkscape:version="0.91 r13725"
   sodipodi:docname="signature.svg">
  <metadata
     id="metadata10">
    <rdf:RDF>
      <cc:Work
         rdf:about="">
        <dc:format>image/svg+xml</dc:format>
        <dc:type
           rdf:resource="http://purl.org/dc/dcmitype/StillImage" />
        <dc:title></dc:title>
      </cc:Work>
    </rdf:RDF>
  </metadata>
  <defs
     id="defs8" />
  <sodipodi:namedview
     pagecolor="#ffffff"
     bordercolor="#666666"
     borderopacity="1"
     objecttolerance="10"
     gridtolerance="10"
     guidetolerance="10"
     inkscape:pageopacity="0"
     inkscape:pageshadow="2"
     inkscape:window-width="464"
     inkscape:window-height="373"
     id="namedview6"
     showgrid="false"
     inkscape:zoom="0.93265832"
     inkscape:cx="558.65147"
     inkscape:cy="29.795424"
     inkscape:window-x="340"
     inkscape:window-y="110"
     inkscape:window-maximized="0"
     inkscape:current-layer="svg2" />
  <path
     d="m 0.124,227.05 c 9.036,-36.258 60.397,-62.337 109.42,-81.638 13.46,-7.12 38.06,-7.592 45.723,-17.588 9.875,-14.892 23.846,-30.29 30.982,-45.15 C 151.784,98.56 110.766,110.92 65.97,110.9 c -12.882,-3.86 -14.616,-10.392 2.58,-8.192 50.77,-2.377 93.73,-20.927 130.992,-39.857 14.567,-18.294 23.642,-40.38 50.978,-53.665 13.005,-6.088 31.82,6.63 22.99,14.125 -13.002,19.138 -39.58,33.655 -62.51,48.473 -10.755,18.45 -23.5,36.454 -36.332,54.426 19.536,-7.057 47.73,-5.984 64.72,-13.28 17.81,-1.747 15.624,12.453 0.088,16.655 -20.508,16.954 -39.3,37.814 -43.186,57.19 28.947,0.217 55.433,-30.47 64.693,-53.897 6.924,-8.918 -7.05,-16.178 -10.998,-23.928 13.398,3.003 18.582,12.017 24.576,19.08 4.777,16.496 -14.406,34.757 -27.587,48.187 -13.48,8.292 -30.622,20.503 -53.563,17.272 -17.473,-4.32 -13.932,-15.986 -6.874,-24.325 6.407,-14.66 24.314,-31.353 33.615,-42.375 -18.97,3.743 -40.382,7.31 -56.275,13.98 -31.886,38.246 -61.605,80.35 -121.298,106.744 -10.52,6.45 -26.813,3.856 -34.344,-3.02 -7.98,-4.283 -8.6,-11.541 -8.111,-17.443 z m 13.687,15.058 c 5.56,4.516 18.182,-2.936 23.898,-5.653 48.69,-23.024 75.44,-57.513 102.733,-89.607 -51.038,16.36 -99.913,40.358 -121.65,72.92 -3.627,7.193 -7.894,14.764 -4.98,22.34 z M 233.054,42.095 c 10.485,-5.54 38.028,-34.59 13.693,-14.866 -5.153,4.748 -10.227,9.588 -13.693,14.865 z m 27.548,145.85 c 10.538,-21.727 26.754,-42.284 40.288,-63.387 -11.034,2.82 -54.96,-16.75 -34.63,-14.755 11.445,2.26 34.926,7.703 43.792,2.528 11.41,-11.665 2.702,-17.312 -22.513,-17.536 -30.38,-1.82 -24.833,-5.064 -0.866,-4.135 33.797,-2.208 56.28,-8.568 59.924,-20.1 16.796,-17.484 18.092,-32.67 41.243,-47.7 12.176,0.764 17.434,8.853 14.65,15.178 0.457,9.97 -8.907,23.613 -11.64,31.55 52.362,-19.268 101.78,-43.528 147.964,-67.54 7.264,-3.738 25.21,-2.063 22.67,2.63 -22.02,45.833 -33.627,93.863 -46.762,149.894 -4.965,24.188 35.68,-30.448 44.718,-36.454 35.326,-37.164 59.32,-71.625 115.05,-99.667 17.705,-8.07 31.89,-13.57 54.16,-15.966 2.764,5.706 5.892,4.226 -9.28,6.004 -66.467,19.052 -104.978,64.43 -138.078,102.443 -22.436,24.962 -43.957,56.418 -71.92,79.505 -15.908,-1.178 -13.82,-21.605 -11.546,-28.78 5.228,-40.286 17.847,-78.067 29.47,-117.82 1.427,-9.216 24.638,-39.537 -4.303,-19.9 -45.674,21.65 -90.697,44.41 -143.293,60.15 -3.606,7.532 -31.817,19.398 -24.594,23.237 19.67,5.23 7.635,17.393 2.213,25.942 -5.66,10.383 -34.15,48.484 -25.865,48.88 28.072,-22.115 56.784,-55.123 88.87,-75.172 13.03,4.14 15.996,12.96 27.78,0.03 5.854,-7.456 18.148,-3.583 22.792,2.045 2.217,15.896 -13.896,30.957 -18.155,46.575 -0.67,7.077 -7.605,29.562 5.633,34.726 4.803,7.646 -21.975,-7.34 -23.006,-13.74 -4.966,-19.802 11.075,-39.373 19.272,-58.35 -33.08,19.242 -53.925,49.062 -68.508,74.776 -16.603,-3.287 -13.038,-17.796 -6.077,-25.147 3.574,-8.326 23.312,-30.647 20.6,-30.51 -20.304,15.702 -41.595,39.19 -63.504,54.093 -11.18,9.36 -24.09,-8.82 -19.736,-16.76 3.444,-17.66 18.576,-33.782 28.023,-50.465 -32.077,20.663 -55.906,46.712 -72.9,72.058 -5.016,-1.415 -11.768,-4.775 -11.94,-8.357 z m 57.583,-61.17 c 18.267,-8.68 10.664,-12.434 0.653,-2.067 l -2.372,3.164 z m 19.548,-26.842 c 19.838,-11.993 -0.397,-7.378 0,0 z m 15.434,-19.68 c 22.766,-2.655 30.188,-29.278 36.497,-40.115 8.12,-24.115 -25.647,28.897 -33.534,35.943 l -2.325,2.79 z m 231.722,75.37 c 5.953,-24.064 24.74859,-40.87677 55.60559,-57.028766 19.097,6.115996 35.40641,12.996766 29.94841,26.282766 19.1,-11.106 35.78,-14.95835 52.427,-27.309355 9.627,2.515005 14.495,0.219355 23.54,3.526355 11.632,5.033 13.728,14.19 14.85,21.417 24.178,-6.78 34.984,-15.54677 51.07,-27.009766 12.563,-2.348 2.79794,13.364996 10.94794,6.193996 12.78,-7.995996 32.98441,-7.407053 28.87041,0.96495 -4.33,20.872 -13.44435,44.83882 -9.63635,66.20882 17.99,-1.82 42.09359,-28.59235 61.22,-28.005 -12.26,3.875 -49.03365,47.29529 -61.15365,54.02529 -19.006,-1.146 -14.59035,-32.45729 -12.92535,-41.87129 -0.835,-17.323 8.32677,-26.84977 10.71077,-43.97477 -25.675,12.212 -44.26636,35.20677 -53.13236,53.66877 -4.04,9.727 -13.51564,46.08211 -23.11364,26.50111 3.845,-16.58 27.70323,-57.64411 37.21123,-73.15911 -11.12,8.312 -26.18,14.603 -43.165,18.054 -8.962,14.282 -34.38805,56.76006 -62.08205,60.50506 -16.738,0.408 -14.64718,-25.83883 -11.31318,-35.12383 -1.277,-10.276 15.50723,-31.80123 15.53623,-38.00023 -9.14,7.84 -23.564,13.3 -35.724,18.374 -11.49,15.363 -33.14582,47.20506 -56.15882,57.69206 -18.746,3.105 -23.73318,-16.68741 -23.94718,-26.51841 -0.672,-2.247 0.686,-13.18765 0.416,-15.41265 z m 15.16041,21.72723 c 1.217,11.07 17.12059,-8.37123 21.90159,-12.36323 6.43,-8.557 33.23259,-19.33518 12.31059,-23.03418 -12.763,-3.466 -18.35559,-19.95082 -23.89059,-5.51282 -8.206,10.686 -11.84259,29.08923 -10.32159,40.91023 z M 629.279,130.827 c 15.88,4.933 31.24,-1.073 28.057,-12.196 0.225,-3.64 -16.78411,-7.12794 -27.89211,-1.51394 -12.874,5.28 -4.11089,4.09294 -0.16589,13.70994 z m 70.406,42.8 c 17.958,-0.036 29.817,-17.04 40.057,-37.86 -12.228,1.066 -30.306,-15.027 -29.625,1.162 -3.51,9.44 -13.86741,24.81559 -12.57741,34.55159 z m 19.28,-47.11 c 10.402,1.68 29.775,3.215 28.19,-6.178 0.39,-5.345 0.25159,-5.55235 -7.57841,-8.48735 -14.108,0.677 -16.49559,3.30235 -20.50359,9.83235 -0.37,1.63 -1.027,3.215 -0.108,4.833 z"
     id="path4"
     inkscape:connector-curvature="0"
     sodipodi:nodetypes="cccccccccccccccccccccccccccccccccccccccccccccccccccccccccccccccccccccccccccccccccccccccccccccccccccccccccccccccccccccccccccccccccccccc"
     style="fill:#000000;fill-opacity:1;stroke-width:1.90000296;stroke-miterlimit:4;stroke-dasharray:none" />
</svg>
